<?xml version="1.0" encoding="utf-8"?>
<!-- Generator: Adobe Illustrator 16.0.0, SVG Export Plug-In . SVG Version: 6.00 Build 0)  -->
<!DOCTYPE svg PUBLIC "-//W3C//DTD SVG 1.1//EN" "http://www.w3.org/Graphics/SVG/1.1/DTD/svg11.dtd">
<svg version="1.1" id="Calque_1" xmlns="http://www.w3.org/2000/svg" xmlns:xlink="http://www.w3.org/1999/xlink" x="0px" y="0px"
	 width="65.242px" height="65.242px" viewBox="0 0 65.242 65.242" enable-background="new 0 0 65.242 65.242" xml:space="preserve">
<g>
	<path fill-rule="evenodd" clip-rule="evenodd" d="M0,27.747C0,18.498,0,9.249,0,0c9.249,0,18.498,0,27.747,0
		c1.009,1.971,2.766,3.896,2.887,5.921c0.378,6.33,0.176,12.696,0.125,19.048c-0.033,4.057-1.598,5.622-5.678,5.659
		c-6.227,0.056-12.47,0.259-18.675-0.12C4.223,30.374,2.132,28.711,0,27.747z M20.435,11.136c-3.008-2.701-6.518-2.651-9.05-0.152
		c-2.376,2.345-2.384,6.348-0.016,8.707c2.397,2.387,6.195,2.428,9.089-0.177c-3.855,0.023-8.944,1.619-8.942-4.154
		C11.519,9.696,16.475,10.944,20.435,11.136z"/>
	<path fill-rule="evenodd" clip-rule="evenodd" d="M65.242,37.495c0,9.249,0,18.498,0,27.747c-9.249,0-18.498,0-27.747,0
		c-1.001-1.972-2.746-3.899-2.866-5.924c-0.376-6.329-0.17-12.695-0.126-19.047c0.028-4.06,1.576-5.621,5.66-5.657
		c6.227-0.056,12.469-0.259,18.673,0.119C61.02,34.867,63.109,36.53,65.242,37.495z M48.229,45.69
		c1.843-0.196,3.338-0.354,4.832-0.513c-0.021-0.303-0.043-0.605-0.065-0.908c-2.082,0-4.164,0-6.364,0c0,3.839,0,7.624,0,11.347
		c2.332,0,4.38,0,6.427,0c0.013-0.259,0.026-0.518,0.04-0.777c-1.624-0.248-3.247-0.496-4.851-0.741c0-1.128,0-2.083,0-3.031
		c1.659-0.261,3.144-0.493,4.628-0.727c-0.001-0.287-0.002-0.573-0.003-0.86c-1.498-0.214-2.997-0.428-4.644-0.663
		C48.229,47.803,48.229,46.863,48.229,45.69z"/>
	<path fill-rule="evenodd" clip-rule="evenodd" d="M27.747,65.242c-9.249,0-18.498,0-27.747,0c0-9.249,0-18.498,0-27.747
		c1.883-0.965,3.728-2.655,5.658-2.76c6.458-0.351,12.947-0.176,19.423-0.121c4.08,0.035,5.645,1.602,5.678,5.659
		c0.052,6.351,0.253,12.718-0.125,19.048C30.513,61.345,28.755,63.271,27.747,65.242z M10.645,55.9
		c4.19,0.249,8.342,0.928,10.158-3.314c0.758-1.769,0.386-4.845-0.738-6.427c-2.322-3.269-6.087-2.17-9.419-2.145
		C10.645,48.221,10.645,51.903,10.645,55.9z"/>
	<path fill-rule="evenodd" clip-rule="evenodd" d="M37.495,0c9.249,0,18.498,0,27.747,0c0,9.249,0,18.498,0,27.747
		c-1.884,0.964-3.728,2.655-5.657,2.76c-6.458,0.351-12.946,0.175-19.422,0.121c-4.084-0.035-5.632-1.598-5.66-5.657
		c-0.044-6.352-0.25-12.718,0.126-19.047C34.749,3.899,36.494,1.971,37.495,0z M56.365,15.402c0.036-3.58-2.689-6.289-6.396-6.356
		c-3.683-0.067-6.527,2.588-6.59,6.149c-0.063,3.601,2.684,6.344,6.367,6.357C53.479,21.565,56.329,18.917,56.365,15.402z"/>
	<path fill-rule="evenodd" clip-rule="evenodd" fill="#FFFFFF" d="M37.495,0c-1.001,1.971-2.746,3.899-2.866,5.923
		c-0.376,6.33-0.17,12.696-0.126,19.047c0.028,4.059,1.576,5.622,5.66,5.657c6.476,0.055,12.964,0.23,19.422-0.121
		c1.93-0.105,3.773-1.796,5.657-2.76c0,3.249,0,6.5,0,9.749c-2.133-0.965-4.223-2.628-6.406-2.762
		c-6.204-0.378-12.446-0.175-18.673-0.119c-4.084,0.036-5.632,1.598-5.66,5.657c-0.044,6.352-0.25,12.718,0.126,19.047
		c0.12,2.024,1.865,3.952,2.866,5.924c-3.25,0-6.499,0-9.749,0c1.009-1.971,2.766-3.897,2.887-5.921
		c0.378-6.33,0.176-12.697,0.125-19.048c-0.033-4.058-1.598-5.624-5.678-5.659c-6.476-0.055-12.965-0.229-19.423,0.121
		C3.728,34.84,1.883,36.53,0,37.495c0-3.249,0-6.5,0-9.749c2.132,0.964,4.223,2.627,6.406,2.761
		c6.205,0.379,12.448,0.175,18.675,0.12c4.08-0.037,5.645-1.602,5.678-5.659c0.052-6.352,0.253-12.718-0.125-19.048
		C30.513,3.896,28.755,1.971,27.747,0C30.996,0,34.245,0,37.495,0z"/>
	<path fill-rule="evenodd" clip-rule="evenodd" fill="#FFFFFF" d="M20.435,11.136c-3.96-0.192-8.917-1.44-8.919,4.224
		c-0.002,5.773,5.087,4.177,8.942,4.154c-2.895,2.604-6.692,2.564-9.089,0.177c-2.368-2.358-2.361-6.362,0.016-8.707
		C13.917,8.485,17.427,8.436,20.435,11.136z"/>
	<path fill-rule="evenodd" clip-rule="evenodd" fill="#FFFFFF" d="M48.229,45.69c0,1.173,0,2.112,0,3.126
		c1.646,0.235,3.146,0.449,4.644,0.663c0.001,0.287,0.002,0.573,0.003,0.86c-1.484,0.233-2.969,0.466-4.628,0.727
		c0,0.948,0,1.903,0,3.031c1.604,0.245,3.227,0.493,4.851,0.741c-0.014,0.26-0.027,0.519-0.04,0.777c-2.047,0-4.095,0-6.427,0
		c0-3.723,0-7.508,0-11.347c2.2,0,4.282,0,6.364,0c0.022,0.303,0.044,0.605,0.065,0.908C51.566,45.336,50.071,45.494,48.229,45.69z"
		/>
	<path fill-rule="evenodd" clip-rule="evenodd" fill="#FFFFFF" d="M10.645,55.9c0-3.997,0-7.68,0-11.886
		c3.333-0.025,7.098-1.124,9.419,2.145c1.124,1.582,1.497,4.658,0.738,6.427C18.987,56.828,14.835,56.149,10.645,55.9z
		 M12.31,55.259c2.652-1.095,5.118-1.486,6.516-2.919c0.863-0.884,0.804-4.107-0.09-4.942c-1.455-1.358-3.933-1.621-6.426-2.504
		C12.31,48.604,12.31,51.194,12.31,55.259z"/>
	<path fill-rule="evenodd" clip-rule="evenodd" fill="#FFFFFF" d="M56.365,15.402c-0.036,3.515-2.886,6.163-6.618,6.149
		c-3.684-0.013-6.431-2.756-6.367-6.357c0.063-3.561,2.907-6.216,6.59-6.149C53.676,9.114,56.401,11.823,56.365,15.402z
		 M50.146,10.732c-2.733-0.095-5.146,2.083-5.007,4.617c0.153,2.787,1.791,4.332,4.565,4.487c2.702,0.15,5.061-2.002,4.906-4.548
		C54.442,12.5,52.7,11.093,50.146,10.732z"/>
	<path fill-rule="evenodd" clip-rule="evenodd" d="M12.31,55.259c0-4.064,0-6.654,0-10.365c2.493,0.883,4.971,1.146,6.426,2.504
		c0.894,0.835,0.953,4.059,0.09,4.942C17.427,53.772,14.962,54.164,12.31,55.259z"/>
	<path fill-rule="evenodd" clip-rule="evenodd" d="M50.146,10.732c2.554,0.36,4.296,1.768,4.465,4.556
		c0.154,2.546-2.204,4.699-4.906,4.548c-2.774-0.155-4.412-1.7-4.565-4.487C45.001,12.815,47.413,10.638,50.146,10.732z"/>
</g>
</svg>
